<?xml version="1.0" encoding="utf-8"?>
<!-- Generator: Adobe Illustrator 16.0.3, SVG Export Plug-In . SVG Version: 6.00 Build 0)  -->
<!DOCTYPE svg PUBLIC "-//W3C//DTD SVG 1.1//EN" "http://www.w3.org/Graphics/SVG/1.1/DTD/svg11.dtd">
<svg version="1.1" id="Capa_1" xmlns="http://www.w3.org/2000/svg" xmlns:xlink="http://www.w3.org/1999/xlink" x="0px" y="0px"
	 width="686.453px" height="686.683px" viewBox="0 0 686.453 686.683" enable-background="new 0 0 686.453 686.683"
	 xml:space="preserve">
<g>
	<polygon fill-rule="evenodd" clip-rule="evenodd" fill="#CCD9CF" points="415.851,477.628 419.021,476.779 456.158,466.841 
		444.235,431.643 418.688,379.982 420.961,301.07 452.183,263.602 497.602,235.783 468.078,215.345 389.734,220.454 
		350.563,259.059 331.828,302.773 322.177,358.409 332.963,419.153 373.271,460.028 	"/>
	<path fill-rule="evenodd" clip-rule="evenodd" fill="#9AC0B9" d="M267.108,233.512l106.162-18.167l-3.405,34.063l-19.302,15.897
		l-30.372,72.099l11.637,59.042l34.064,52.229l7.378,20.755h-57.338l-66.422-29.271l-28.386-101.052
		C221.124,339.106,261.999,239.189,267.108,233.512z"/>
	<path fill-rule="evenodd" clip-rule="evenodd" fill="#5B939A" d="M46.269,431.075c0,0,72.668-124.897,87.428-131.71
		c14.76-6.812,99.917-49.958,99.917-49.958l22.709,12.489l-15.897,45.417l-5.677,52.23l-4.542,38.603l26.116,43.147l104.459,34.063
		h38.604h120.356l78.344,10.218l14.76,26.114c0,0-38.607,60.179-54.502,74.938c-15.896,14.761-241.656,148.774-341.761,56.771
		C116.476,551.397,34.915,553.701,46.269,431.075z"/>
	<path fill-rule="evenodd" clip-rule="evenodd" fill="#F5ECD2" d="M358.228,19.769C562.068,9.701,56.086-37.549,18.959,329.787
		c-0.562,5.565-3.017,11.459-1.36,16.984c5.109,17.031,30.656,34.062,46.836,28.101c15.482-5.704,113.616-155.657,213.074-144.701
		c4.479,0.494,9.196,4.336,13.443,2.49c19.584-8.516,87.711-18.735,87.711-18.735l68.125,4.258l84.306,22.993l-59.609,11.071
		l-15.327,4.257c0,0-35.767,42.579-38.321,77.493c-2.555,34.915-2.555,55.352-2.555,55.352s32.359,61.313,53.648,66.422
		s86.008,20.438,111.556,10.219s98.871-89.444,93.672-160.946c-5.198-71.503-36.617-98.781-36.617-98.781l-40.876-63.868
		L521.729,74.27L414.431,39.354L358.228,19.769z"/>
	<path fill-rule="evenodd" clip-rule="evenodd" fill="#0C1828" d="M519.542,638.957c0.283-0.156,0.582-0.271,0.897-0.345
		c1.341-1.042,2.605-2.209,4.035-3.11c19.863-12.53,38.128-27.08,55.399-42.985c11.622-10.707,21.25-23.222,32.343-34.386
		c9.261-13.736,19.516-26.77,27.826-41.185c24.014-41.655,39.108-86.2,44.584-134.006c7.059-61.627-2.049-120.856-26.506-177.728
		c-4.938-11.488-11.03-22.48-16.588-33.699c-9.684-14.203-19.373-28.407-29.057-42.61l-0.022-0.562
		c-4.448-3.185-7.568-7.529-10.509-12.033c-0.706-0.802-1.417-1.605-2.125-2.405c-4.153-3.346-7.646-7.305-10.748-11.619
		c-1.549-0.723-2.679-1.859-3.4-3.408c-3.912-2.63-7.617-5.48-10.219-9.519c-0.823-0.755-1.645-1.509-2.465-2.262
		c-5.093-3.431-9.899-7.202-13.981-11.83l0.027,0.026c-13.209-9.229-26.418-18.457-39.628-27.686
		c-8.925-4.782-17.853-9.562-26.778-14.342c-8.988-3.684-18.261-6.698-26.774-11.488c-17.197-5.948-34.691-10.866-52.351-15.206
		c-5.532-0.975-11.064-1.954-16.596-2.934c-1.631-0.332-3.26-0.666-4.891-1c-0.932-0.084-1.858-0.171-2.79-0.257
		c-1.256-0.126-2.514-0.253-3.771-0.376c-8.281-0.482-16.561-0.984-24.843-1.447c-64.544-3.594-125.352,10.2-181.806,41.317
		c-61.416,33.852-108.563,82.12-140.95,144.638c-4.792,9.252-7.629,19.46-13.874,27.969c-0.527,3.269-1.192,6.483-3.404,9.123
		c-0.476,4.507-2.239,8.587-4.194,12.603c-4.237,16.911-9.153,33.624-11.895,50.932c-5.334,33.683-5.993,67.291-1.566,101.129
		c6.077,46.472,21.114,89.733,44.75,130.114c8.618,14.724,18.73,28.399,28.81,42.109c4.213,3.411,7.556,7.589,10.576,12.047
		c1.616,1.121,2.896,2.511,3.525,4.421c3.136,2.142,5.725,4.815,7.806,7.99c10.636,9.582,21.271,19.166,31.908,28.754
		c2.336,1.455,4.788,2.757,6.994,4.388c36.423,26.915,76.335,46.538,120.275,57.771c2.871,0.732,5.85,1.187,8.186,3.263
		c1.572,0.176,3.144,0.351,4.715,0.523c1.284-0.17,2.363,0.212,3.232,1.18c1.47,0.113,2.941,0.229,4.411,0.343
		c5.8,0.868,11.822,0.553,17.264,3.297c1.901,0.076,3.801,0.15,5.704,0.223c9.96,0.56,19.912,1.305,29.878,1.644
		c52.667,1.796,103.208-7.465,151.441-29.032C495.026,651.651,507.154,645.059,519.542,638.957z M395.248,343.6
		c0.465,4.708-0.202,9.354-0.733,14.008c1.107,4.216,0.991,8.514,0.879,12.814c0.479,4.683,0.958,9.367,1.439,14.051
		c3.941,17.286,8.883,34.166,18.296,49.472c5.389,8.767,11.718,16.708,18.783,24.129c0.988,1.04,2.492,2.071,1.847,3.759
		c-0.661,1.73-2.454,1.406-3.902,1.446c-1.273,0.035-2.55-0.082-3.82-0.197c-42.42-3.748-69.883-27.558-86.095-65.462
		c-12.027-28.122-10.455-57.125-1.785-85.732c10.906-35.993,33.139-62.917,67.138-79.58c17.059-8.359,35.122-7.192,53.221-4.91
		c1.451,0.183,3.242,0.399,3.684,2.059c0.562,2.151-1.531,2.753-2.824,3.732c-0.674,0.512-1.464,0.868-2.186,1.315
		c-21.11,13.055-37.619,30.306-48.98,52.551c-4.889,9.572-7.354,19.945-11.334,29.796c-0.182,0.777-0.362,1.553-0.544,2.329
		c-0.105,0.843-0.208,1.687-0.315,2.53c-0.258,1.791-0.513,3.581-0.772,5.37C396.577,332.588,395.914,338.093,395.248,343.6z
		 M173.164,599.253c-0.796-0.401-1.592-0.798-2.389-1.194c-22.22-14.375-41.648-31.983-58.957-51.89
		c-7.472-8.594-15.377-16.983-20.53-27.37c-0.331-0.403-0.661-0.806-0.99-1.207c-3.632-3.869-6.482-8.256-8.675-13.078
		c-23.235-30.976-23.773-86.56-1.204-119.604c16.276-23.83,35.18-45.329,56.734-64.512c26.999-24.031,56.285-44.633,89.165-59.886
		c1.156-0.538,2.318-1.081,3.521-1.497c2.417-0.833,4.625-0.485,6.415,1.469c1.81,1.977,1.912,4.25,0.743,6.511
		c-1.171,2.262-2.616,4.38-3.872,6.6c-21.896,38.695-30.237,79.496-16.754,122.768c14.095,45.234,44.402,74.977,89.476,89.693
		c17.153,5.602,34.851,7.538,52.713,8.614c4.287,0.043,8.572,0.082,12.859,0.126c4.646-0.522,9.298-0.522,13.945,0
		c4.293,0,8.583,0,12.875,0c4.647-0.522,9.298-0.522,13.945,0c4.29,0,8.58,0,12.873,0c4.649-0.522,9.301-0.522,13.947,0
		c4.291,0,8.583,0,12.873,0c4.65-0.522,9.298-0.522,13.947,0c4.292,0,8.583,0,12.874,0c4.647-0.522,9.298-0.522,13.944,0
		c4.294,0,8.581,0,12.874,0c4.65-0.522,9.301-0.522,13.948,0c4.29,0,8.582,0,12.872,0c4.65-0.522,9.298-0.522,13.947,0
		c4.291,0,8.583,0,12.874,0c4.647-0.522,9.297-0.522,13.945,0c4.293,0.011,8.584,0.021,12.879,0.032
		c12.09,1.397,17.178,10.826,11.556,21.51c-1.087,2.062-2.342,4.06-3.706,5.954c-31.574,43.943-71.916,77.488-120.866,100.316
		c-46.307,21.595-95.1,30.768-146.276,28.013c-36.765-1.976-71.855-10.289-105.56-24.77c-13.077-5.615-26.087-11.47-37.619-20.039
		C179.584,604.381,176.032,602.357,173.164,599.253z M346.911,35.577C398.83,36.12,447.481,49.218,492.729,74.5
		c46.031,25.722,83.134,61.099,111.213,105.799c33.832,53.858,49.65,112.671,46.723,176.176
		c-1.217,26.415-11.948,49.524-29.958,68.892c-21.712,23.346-48.57,35.981-80.557,37.56c-37.875,1.87-68.527-12.366-92.052-41.742
		c-19.214-23.989-24.42-51.916-21.007-81.862c3.33-29.226,15.388-53.81,38.972-72.054c6.567-5.08,13.5-9.801,21.517-12.248
		c12.483-3.812,23.827,0.939,32.795,13.661c5.392,7.646,10.038,15.823,17.222,22.075c6.686,5.821,19.076,7.417,27.036,3.345
		c7.021-3.595,10.598-12.017,9.298-22.048c-0.865-6.687-3.493-12.727-7.252-18.239c-14.686-21.535-36.411-33.517-59.656-43.061
		c-33.012-13.554-68.039-17.017-103.183-18.137c-71.765-2.289-139.917,12.321-203.671,46.058
		c-45.637,24.149-85.627,55.378-119.254,94.645c-5.258,6.139-10.25,12.509-15.457,18.694c-5.994,7.12-11.647,8.958-19.073,6.51
		c-7.936-2.616-10.356-8.86-10.83-16.366c-0.149-2.332-0.129-4.686-0.035-7.022c1.434-35.604,7.88-70.284,21.066-103.397
		C84.323,162.082,131.05,108.797,196.82,72.779C243.465,47.235,293.657,34.978,346.911,35.577z M241.364,353.093
		c1.474-33.393,13.226-62.572,35.939-87.188c20.149-21.839,44.616-35.851,74.199-40.349c1.742-0.265,4.114-1.462,5.108,0.919
		c0.775,1.851-1.263,2.977-2.423,4.101c-27.475,26.58-43.182,59.202-49.247,96.653c-3.998,24.68-3.455,49.118,4.398,73.193
		c6.867,21.06,17.782,39.472,33.646,54.958c1.534,1.496,4.547,2.911,3.18,5.576c-1.114,2.178-3.887,1.159-5.878,0.783
		c-6.685-1.263-13.362-2.595-19.987-4.143C273.202,446.583,239.121,401.411,241.364,353.093z"/>
</g>
</svg>
