<?xml version="1.0" encoding="utf-8"?>
<!-- Generator: Adobe Illustrator 16.0.3, SVG Export Plug-In . SVG Version: 6.00 Build 0)  -->
<!DOCTYPE svg PUBLIC "-//W3C//DTD SVG 1.1//EN" "http://www.w3.org/Graphics/SVG/1.1/DTD/svg11.dtd">
<svg version="1.1" id="Capa_1" xmlns="http://www.w3.org/2000/svg" xmlns:xlink="http://www.w3.org/1999/xlink" x="0px" y="0px"
	 width="10px" height="10px" viewBox="0 0 10 10" enable-background="new 0 0 10 10" xml:space="preserve">
<g>
	<polygon fill-rule="evenodd" clip-rule="evenodd" fill="#CCD9CF" points="6.061,6.94 6.105,6.928 6.645,6.783 6.473,6.271 
		6.102,5.521 6.136,4.375 6.588,3.83 7.247,3.426 6.818,3.129 5.681,3.203 5.111,3.764 4.839,4.399 4.699,5.208 4.856,6.09 
		5.442,6.684 	"/>
	<path fill-rule="evenodd" clip-rule="evenodd" fill="#9AC0B9" d="M3.899,3.393l1.543-0.264l-0.05,0.495L5.111,3.855L4.67,4.902
		L4.839,5.76L5.334,6.52l0.108,0.302H4.608L3.643,6.396L3.231,4.927C3.231,4.927,3.825,3.476,3.899,3.393z"/>
	<path fill-rule="evenodd" clip-rule="evenodd" fill="#5B939A" d="M0.69,6.264c0,0,1.056-1.815,1.271-1.914
		C2.175,4.25,3.412,3.624,3.412,3.624l0.331,0.182l-0.231,0.66L3.429,5.224L3.363,5.785l0.38,0.627L5.26,6.907h0.561h1.748
		L8.71,7.055l0.213,0.38c0,0-0.561,0.874-0.792,1.09C7.899,8.738,4.619,10.686,3.165,9.35C1.71,8.013,0.525,8.046,0.69,6.264z"/>
	<path fill-rule="evenodd" clip-rule="evenodd" fill="#F5ECD2" d="M5.223,0.287c2.963-0.146-4.391-0.833-4.93,4.505
		C0.285,4.873,0.25,4.958,0.274,5.039c0.074,0.248,0.445,0.495,0.68,0.408C1.179,5.363,2.605,3.185,4.05,3.344
		C4.115,3.352,4.184,3.407,4.246,3.38C4.53,3.257,5.52,3.108,5.52,3.108L6.509,3.17l1.228,0.334L6.868,3.665L6.645,3.727
		c0,0-0.519,0.619-0.557,1.126C6.053,5.359,6.053,5.658,6.053,5.658s0.47,0.89,0.777,0.964C7.141,6.696,8.081,6.92,8.453,6.771
		c0.371-0.148,1.438-1.299,1.36-2.338C9.738,3.393,9.282,2.997,9.282,2.997L8.688,2.069l-1.089-0.99l-1.56-0.507L5.223,0.287z"/>
	<path fill-rule="evenodd" clip-rule="evenodd" fill="#0C1828" d="M7.567,9.284C7.571,9.282,7.575,9.28,7.579,9.278
		c0.02-0.014,0.04-0.031,0.061-0.044C7.928,9.052,8.194,8.84,8.445,8.609c0.167-0.156,0.308-0.337,0.47-0.5
		C9.049,7.91,9.197,7.721,9.317,7.511c0.35-0.605,0.569-1.252,0.65-1.947c0.101-0.895-0.032-1.756-0.388-2.583
		C9.51,2.815,9.421,2.655,9.34,2.492C9.199,2.286,9.059,2.08,8.919,1.873L8.917,1.865C8.854,1.818,8.809,1.755,8.765,1.69
		c-0.01-0.012-0.02-0.023-0.029-0.035C8.674,1.606,8.623,1.549,8.577,1.486c-0.021-0.01-0.037-0.026-0.05-0.049
		c-0.055-0.039-0.11-0.08-0.147-0.138C8.368,1.288,8.356,1.276,8.344,1.265C8.271,1.215,8.2,1.161,8.141,1.094l0.002,0
		C7.949,0.96,7.758,0.826,7.565,0.692c-0.131-0.07-0.261-0.14-0.39-0.208C7.046,0.43,6.909,0.386,6.787,0.316
		C6.536,0.23,6.281,0.159,6.026,0.095c-0.08-0.014-0.161-0.028-0.242-0.042c-0.023-0.005-0.047-0.01-0.071-0.015
		C5.701,0.037,5.687,0.036,5.673,0.035C5.656,0.033,5.638,0.031,5.619,0.029C5.498,0.022,5.378,0.015,5.258,0.008
		C4.32-0.044,3.437,0.156,2.616,0.608C1.724,1.1,1.039,1.801,0.568,2.71C0.499,2.844,0.457,2.993,0.366,3.116
		C0.359,3.164,0.349,3.21,0.317,3.249C0.31,3.314,0.284,3.374,0.256,3.432C0.194,3.678,0.123,3.92,0.083,4.172
		C0.006,4.662-0.004,5.15,0.061,5.642c0.088,0.674,0.307,1.303,0.65,1.891c0.125,0.213,0.272,0.412,0.418,0.61
		c0.061,0.05,0.109,0.11,0.153,0.175c0.024,0.017,0.042,0.038,0.052,0.065c0.045,0.03,0.083,0.069,0.113,0.115
		c0.155,0.14,0.309,0.278,0.463,0.418c0.034,0.021,0.07,0.04,0.102,0.063c0.53,0.392,1.109,0.676,1.748,0.84
		c0.042,0.011,0.084,0.017,0.119,0.047c0.023,0.004,0.046,0.006,0.068,0.008c0.019-0.002,0.035,0.004,0.047,0.018
		c0.021,0.002,0.043,0.003,0.064,0.005C4.144,9.91,4.231,9.905,4.31,9.946c0.028,0,0.056,0.002,0.083,0.002
		c0.145,0.009,0.29,0.02,0.434,0.024c0.765,0.025,1.5-0.108,2.202-0.422C7.21,9.468,7.388,9.373,7.567,9.284z M5.761,4.992
		C5.768,5.061,5.758,5.128,5.75,5.196C5.766,5.257,5.764,5.32,5.763,5.382C5.77,5.45,5.777,5.519,5.784,5.586
		c0.058,0.251,0.129,0.496,0.267,0.718c0.077,0.128,0.17,0.242,0.272,0.352C6.337,6.671,6.358,6.686,6.349,6.71
		C6.341,6.735,6.313,6.731,6.293,6.731C6.273,6.732,6.256,6.73,6.238,6.729C5.621,6.674,5.222,6.328,4.987,5.777
		C4.812,5.37,4.834,4.947,4.96,4.532c0.158-0.523,0.481-0.915,0.976-1.156c0.246-0.122,0.509-0.105,0.771-0.071
		c0.021,0.002,0.048,0.005,0.056,0.03c0.008,0.031-0.024,0.04-0.042,0.054C6.712,3.396,6.7,3.4,6.69,3.407
		c-0.309,0.19-0.547,0.44-0.713,0.764C5.907,4.31,5.871,4.46,5.813,4.604C5.812,4.615,5.808,4.626,5.806,4.638
		C5.804,4.65,5.803,4.662,5.802,4.674C5.798,4.7,5.794,4.727,5.79,4.752C5.78,4.832,5.77,4.912,5.761,4.992z M2.534,8.708
		C2.522,8.702,2.511,8.696,2.5,8.69C2.176,8.48,1.894,8.225,1.643,7.936C1.534,7.812,1.419,7.688,1.344,7.539
		C1.34,7.533,1.335,7.526,1.33,7.521C1.277,7.464,1.236,7.4,1.204,7.33C0.866,6.881,0.858,6.072,1.187,5.593
		c0.237-0.346,0.511-0.659,0.824-0.938c0.393-0.349,0.818-0.648,1.296-0.87C3.323,3.777,3.34,3.77,3.357,3.763
		c0.035-0.012,0.067-0.007,0.093,0.021c0.026,0.029,0.028,0.062,0.011,0.095C3.445,3.912,3.423,3.943,3.405,3.975
		C3.087,4.538,2.966,5.13,3.162,5.759c0.205,0.658,0.645,1.089,1.3,1.303c0.249,0.081,0.506,0.108,0.766,0.125
		C5.29,7.188,5.353,7.189,5.415,7.189c0.068-0.008,0.135-0.008,0.203,0c0.062,0,0.125,0,0.188,0c0.066-0.008,0.136-0.008,0.202,0
		c0.062,0,0.125,0,0.188,0c0.067-0.008,0.135-0.008,0.202,0c0.063,0,0.124,0,0.188,0c0.066-0.008,0.134-0.008,0.203,0
		c0.062,0,0.124,0,0.186,0c0.067-0.008,0.137-0.008,0.203,0c0.062,0,0.125,0,0.188,0c0.067-0.008,0.135-0.008,0.202,0
		c0.063,0,0.125,0,0.188,0c0.067-0.008,0.134-0.008,0.203,0c0.062,0,0.124,0,0.186,0c0.069-0.008,0.137-0.008,0.203,0
		c0.063,0,0.125,0,0.188,0C8.71,7.21,8.782,7.347,8.701,7.502c-0.016,0.031-0.035,0.06-0.055,0.087
		C8.188,8.228,7.601,8.716,6.89,9.047C6.217,9.36,5.508,9.494,4.765,9.454c-0.534-0.029-1.044-0.15-1.534-0.361
		c-0.19-0.081-0.379-0.166-0.546-0.29C2.627,8.782,2.576,8.752,2.534,8.708z M5.059,0.517c0.755,0.008,1.462,0.198,2.117,0.565
		C7.847,1.456,8.386,1.97,8.794,2.62c0.492,0.782,0.722,1.637,0.68,2.56C9.456,5.563,9.3,5.898,9.037,6.181
		C8.722,6.52,8.332,6.703,7.868,6.727C7.316,6.754,6.87,6.546,6.528,6.12C6.25,5.771,6.173,5.365,6.225,4.931
		c0.047-0.425,0.223-0.782,0.564-1.047c0.097-0.074,0.197-0.143,0.314-0.178C7.285,3.65,7.448,3.719,7.579,3.904
		c0.08,0.111,0.146,0.23,0.252,0.321C7.928,4.31,8.107,4.332,8.224,4.273c0.101-0.052,0.154-0.175,0.135-0.32
		C8.346,3.856,8.307,3.768,8.253,3.688C8.04,3.375,7.724,3.201,7.386,3.063c-0.48-0.197-0.989-0.248-1.5-0.264
		C4.843,2.765,3.853,2.978,2.926,3.468C2.263,3.819,1.682,4.272,1.193,4.843C1.117,4.933,1.045,5.025,0.969,5.115
		C0.882,5.218,0.8,5.245,0.692,5.209c-0.115-0.038-0.15-0.129-0.157-0.238c-0.002-0.034-0.002-0.068,0-0.103
		C0.555,4.353,0.648,3.848,0.84,3.367c0.404-1.012,1.083-1.787,2.038-2.31C3.555,0.686,4.285,0.508,5.059,0.517z M3.525,5.13
		c0.021-0.485,0.192-0.909,0.521-1.267C4.34,3.546,4.695,3.343,5.125,3.277c0.025-0.004,0.06-0.021,0.074,0.013
		c0.012,0.027-0.018,0.043-0.035,0.06C4.766,3.736,4.537,4.21,4.449,4.755c-0.058,0.358-0.05,0.713,0.064,1.063
		c0.1,0.306,0.258,0.574,0.489,0.798c0.022,0.021,0.066,0.043,0.046,0.081C5.032,6.729,4.991,6.714,4.962,6.709
		C4.865,6.691,4.769,6.672,4.672,6.648C3.987,6.489,3.492,5.833,3.525,5.13z"/>
</g>
</svg>
